<svg xmlns="http://www.w3.org/2000/svg" width="69.852" height="55.552"><g transform="translate(-54 -133.3)"><path  d="M109.332 164.97L77.37 179.306l-3 9.253 15.579.293 26.661-22.784-6-5.266-6.327-1.17 4.681 5.632" fill="#fff"/><g ><path  d="M106.919 160.143c-.073-.4-.4.183-.731.512a5.157 5.157 0 0 0-.512.658 4.685 4.685 0 0 0-.4.731 1.543 1.543 0 0 0-.11.8c.256.293.293.037.768-.11a2.349 2.349 0 0 0 .731-.293 6.488 6.488 0 0 0 .622-.512c.183-.183.366-.4.549-.622-.329-.11-.622.11-.622-.037.037-.183.183-.256.073-.4-.146-.146-.256.183-.439.11-.405-.101-.149-.216.071-.837z" fill="#010202"/></g><g ><path  d="M112.551 169.213c.037-.183.183-.219.073-.329-.146-.146-.183 0-.366-.037-.4-.11-.256-.146-.037-.731-.073-.4-.219.256-.549.585a4.412 4.412 0 0 0-.585.585 4.55 4.55 0 0 0-.366.731 1.444 1.444 0 0 0-.146.768" fill="#010202"/></g><g ><path  d="M106.407 167.092c-.073-.4-.293.183-.622.512-.183.183-.366.4-.549.622a2.866 2.866 0 0 0-.329.768 1.667 1.667 0 0 0-.183.841c.256.293.366.146.841 0a3.244 3.244 0 0 0 .658-.475 5.127 5.127 0 0 0 .658-.439 5.222 5.222 0 0 0 .549-.658c-.329-.11-.695.146-.695 0 .037-.183.256-.256.146-.4-.146-.146-.256.11-.439.037-.405-.15-.255-.223-.035-.808z" fill="#010202"/></g><g ><path  d="M106.078 173.309c-.073-.4-.366.183-.695.549-.183.183-.293.439-.475.658a2.782 2.782 0 0 0-.439.695 1.867 1.867 0 0 0-.11.768c.256.293.256.073.768-.11a2.566 2.566 0 0 0 .695-.366c.183-.146.475-.183.695-.4.183-.183.329-.4.512-.622-.329-.11-.731.073-.768-.073.037-.183.219-.146.11-.293-.146-.146-.146.037-.329-.037-.366-.148-.183-.184.036-.769z" fill="#010202"/></g><g ><path  d="M99.971 172.285c-.073-.4-.293.146-.622.512-.183.183-.256.475-.439.695a2.782 2.782 0 0 0-.439.695 1.754 1.754 0 0 0-.183.841c.256.293.329.037.841-.11a5.8 5.8 0 0 0 .731-.329 7.533 7.533 0 0 0 .585-.549c.183-.183.4-.256.585-.475-.329-.11-.622.037-.658-.11.037-.183.146-.146 0-.293s-.146.073-.329.037c-.442-.182-.255-.329-.072-.914z" fill="#010202"/></g><g ><path  d="M94.521 177.368c-.073-.4-.4.183-.731.512-.183.183-.256.475-.439.695a6.358 6.358 0 0 0-.366.695 2.034 2.034 0 0 0-.219.768c.256.293.329.146.8 0a3.785 3.785 0 0 0 .731-.4c.183-.146.366-.366.585-.549a4.85 4.85 0 0 0 .585-.622c-.329-.11-.622.146-.658 0 .037-.183.183-.256.073-.366-.146-.146-.256.146-.439.073-.36-.111-.141-.221.078-.806z" fill="#010202"/></g><g ><path  d="M88.268 183.695c-.073-.4-.146.256-.475.585a4.73 4.73 0 0 0-.549.622 4.526 4.526 0 0 0-.512.658 2.134 2.134 0 0 0-.11.841c.256.293.293.073.8-.11a2.521 2.521 0 0 0 .768-.293c.183-.146.329-.366.549-.585.183-.183.4-.366.585-.585-.329-.11-.658.11-.658-.037.037-.183.146-.183 0-.293-.146-.146-.146-.037-.329-.073-.362-.111-.289-.145-.069-.73z" fill="#010202"/></g><g ><path  d="M100.41 179.851c-.183 0-.219.183-.4.11-.4-.11-.219-.256 0-.841-.073-.4-.256.219-.585.549-.183.183-.4.366-.585.585a4.844 4.844 0 0 0-.439.731 1.623 1.623 0 0 0-.073.841" fill="#010202"/></g><g ><path  d="M94.338 185.158c.037-.183.256-.183.11-.293-.146-.146-.146.037-.329-.037-.4-.11-.256-.183-.073-.768-.073-.4-.183.256-.512.585a4.156 4.156 0 0 0-.585.549 4.683 4.683 0 0 0-.4.731 2.139 2.139 0 0 0-.183.8" fill="#010202"/></g><g ><path  d="M87.207 178.21c-.073-.4-.293.183-.622.512-.183.183-.329.439-.512.658a6.445 6.445 0 0 0-.329.731 1.667 1.667 0 0 0-.219.8c.256.293.366.11.841-.037a2.726 2.726 0 0 0 .731-.366c.183-.146.366-.366.585-.549.183-.183.366-.329.549-.549-.329-.11-.585.073-.585-.073.037-.183.073-.183-.037-.329-.146-.146-.146.037-.329 0-.438-.103-.255-.213-.073-.798z" fill="#010202"/></g><g ><path  d="M92.692 173.087c-.146.183-.4.329-.549.549a6.921 6.921 0 0 0-.439 1.426c.293.293.329.073.8-.073a7.991 7.991 0 0 0 .695-.4c.183-.146.475-.219.695-.4.183-.183.366-.475.549-.695-.329-.11-.622.146-.622 0a.344.344 0 0 0-.037-.329c-.11-.293-.219-.219-.4-.475" fill="#010202"/></g><g ><path  d="M81.536 184.975c-.073-.4-.4.183-.731.512-.183.183-.329.439-.512.658a4.853 4.853 0 0 0-.329.768 1.319 1.319 0 0 0-.146.731c.256.293.256.073.731-.073a2.369 2.369 0 0 0 .768-.256 7.443 7.443 0 0 0 .622-.549c.183-.183.329-.366.512-.585-.329-.11-.585.073-.622-.073.037-.183.11-.183-.037-.329s-.146.037-.329-.037c-.327-.145-.108-.182.073-.767z" fill="#010202"/></g><g ><path  d="M80.843 179.891c-.073-.4-.146.219-.475.585a4.412 4.412 0 0 0-.585.585 4.554 4.554 0 0 0-.366.731 1.287 1.287 0 0 0-.11.731c.256.293.256.146.731 0a2.726 2.726 0 0 0 .731-.366 5.786 5.786 0 0 0 .658-.475 5.715 5.715 0 0 0 .512-.695c-.329-.11-.731.146-.731 0 .037-.183.256-.219.11-.329-.146-.146-.183.073-.366.037-.401-.109-.328-.218-.109-.804z" fill="#010202"/></g><g ><path  d="M74.846 186.95a4.3 4.3 0 0 0 .695-.366c.183-.146.439-.256.658-.439.183-.183.329-.4.549-.622-.329-.11-.658.11-.658-.037.037-.183.219-.256.11-.4-.146-.146-.219.11-.366 0-.329-.256.037-.183.256-.768" fill="#010202"/></g><g ><path  d="M111.673 161.972c-.073-.4-.4.183-.731.512a5.154 5.154 0 0 0-.512.658 4.685 4.685 0 0 0-.4.731 1.543 1.543 0 0 0-.11.8c.256.293.293.037.768-.11a2.348 2.348 0 0 0 .731-.293 6.482 6.482 0 0 0 .622-.512c.183-.183.366-.4.549-.622-.329-.11-.622.11-.622-.037.037-.183.183-.256.073-.4-.146-.146-.256.183-.439.11-.405-.101-.149-.216.071-.837z" fill="#010202"/></g><path  d="M77.771 179.38l-5.01-4.754-11.813-.475-2.816-2.194-2.926-1.829L54 166.58l11.337-7.534 3.291-7.314 10.716-6.839 13.422.731L98 151.732l4.827 6.254 6.144 7.131" fill="#d28046"/><path  d="M65.593 169.396l2.3-1.207 5.856-2.816 15.031 9.435-11.008 4.937-5.01-4.864-11.813-.475-2.816-1.833-1.829-1.824 1.975-3.547" fill="#fff"/><path  d="M80.807 137.067l1.536-.658 5.632 15.726 5.669-5.925-10.167-10.643-1.646.475z" fill="#0e0908"/><path  d="M80.185 141.163L69.469 133.3l-1.938 1.353-.073.768 1.024-.622 10.789 10.569z" fill="#0e0908"/><path  d="M79.271 145.368l-10.789-10.569-1.024.622 4.059 14.373z" fill="#e5ab5b"/><path  d="M79.271 145.369l1.536-8.3 1.536-.658 5.632 15.726-1.243 6.472z" fill="#e5ab5b"/><path  d="M70.603 160.143l2.706-1.865 4.206 1.426-2.231 1.353-2.926.4z" fill="#0e0908" stroke="#0e0908" stroke-miterlimit="10"/><path  d="M73.493 161.167s-.951-1.463.914-2.45l2.706.841-2.048 1.317z" fill="#4dad33"/><ellipse  cx=".768" cy=".878" rx=".768" ry=".878" transform="rotate(-6.292 1482.568 -591.9622)" fill="#0e0908"/><g ><path  d="M115.145 164.971a2.916 2.916 0 0 0-.293.585 1.857 1.857 0 0 0-.11.622c.256.256.256.11.658 0a1.882 1.882 0 0 0 .622-.293" fill="#010202"/></g><path  d="M89.95 188.852l26.661-22.784 7.241 22.711z" fill="#b5191a"/><path  d="M58.644 172.212l10.825.731 3.8-1.353-3.8 1.024-11.154-.658z" fill="none" stroke="#201e20" stroke-miterlimit="10"/><path  d="M55.207 170.128L54 166.58l3.438-2.267.841 2.889-1.979 3.548z" fill="#201e20"/><path  fill="none" stroke="#fff" stroke-miterlimit="10" d="M56.304 170.749l4.645 3.401"/></g></svg>