<svg xmlns="http://www.w3.org/2000/svg" width="113" height="105" viewBox="0 0 113 105"><g><g><g><path fill="#fff" d="M25.043 72.45L10.44 81.004 1 94.638l1.694 9.52 45.181-17.024-3.308-6.535-13.796-3.792z"/></g><g><path fill="#fff" d="M89.587 71.886l13.312 8.794 9.52 13.635-1.694 9.52-45.181-16.943 3.227-6.535 13.797-3.792z"/></g><g><path fill="#d28046" d="M66.996 26.705l-3.227 3.147 28.077 17.83 3.066 11.537-3.792 11.295-8.552-7.987-10.812 10.004-2.985 7.826-24.123.484-1.936-7.18-11.376-10.892-8.552 8.068-3.712-11.376 2.985-11.537 29.368-18.556-2.34-2.42z"/></g><g><path fill="#b76d3a" d="M54.41 51.716l-5.728 16.297-.484 5.325-3.55 5.97-3.47-7.987-9.842-8.552 10.569-14.845"/></g><g><path fill="#b76d3a" d="M59.493 51.716l5.728 16.297.484 5.325 3.55 5.97 2.985-8.229 10.328-8.31-10.57-14.845"/></g><g><path fill="#8c5833" d="M41.905 48.57l6.535 7.26.887 10.328L54.25 52.28z"/></g><g><path fill="#8c5833" d="M72.24 48.57l-6.535 7.26-1.13 10.247-4.84-13.716z"/></g><g><path fill="#e5ab5b" d="M51.425 29.368L28.593 2.743 20.283 0l-3.228 20.815 4.76 18.396 8.875 3.388z"/></g><g><path d="M41.824 35.5l-7.18-5.648-1.775-9.763-7.584-8.31 4.276 19.364 10.004 5.808z"/></g><g><path d="M66.512 60.994h5.728l5.083-3.792-4.276-1.452-6.293 1.21z"/></g><g><path d="M48.198 60.752h-5.81l-5.001-3.792 4.276-1.452 6.293 1.21z"/></g><g><path fill="#ddd" d="M46.18 76.888L31.337 62.77l-8.552 8.068 8.794 5.809 13.07 4.195 4.034 5.81 7.503 4.275 9.843-4.276 2.743-6.293 13.797-3.792 8.39-5.97-8.39-8.068-15.572 14.2"/></g><g><path fill="#f2f2f2" d="M44.648 80.841l2.259-4.518 3.55-2.743 12.747-.242 3.308 2.743 2.26 4.276-2.744 6.293H48.682z"/></g><g><path d="M50.941 79.55l3.47-4.518h4.275l3.792 4.519-6.05 4.518z"/></g><g><path fill="none" stroke="#000" stroke-miterlimit="50" d="M56.427 82.616v4.276"/></g><g><path fill="#4dad33" d="M47.31 56.637c.565 2.582-.887 4.115-.887 4.115h-4.034s-1.775-.807-2.017-2.34c-.323-1.936.968-2.904 1.694-2.985z"/><path fill="none" stroke="#40712d" stroke-miterlimit="50" stroke-width=".1" d="M47.31 56.637c.565 2.582-.887 4.115-.887 4.115v0h-4.034v0s-1.775-.807-2.017-2.34c-.323-1.936.968-2.904 1.694-2.985z"/></g><g><path fill="#4dad33" d="M72.24 55.67c.727.16 2.017 1.048 1.695 2.984-.242 1.533-2.017 2.34-2.017 2.34h-4.034s-1.452-1.533-.888-4.115z"/><path fill="none" stroke="#40712d" stroke-miterlimit="50" stroke-width=".1" d="M72.24 55.67c.727.16 2.017 1.048 1.695 2.984-.242 1.533-2.017 2.34-2.017 2.34v0h-4.034v0s-1.452-1.533-.888-4.115z"/></g><g><path fill="#030304" d="M43.637 59.984c-.612-.124-.928-1.11-.707-2.202.221-1.091.896-1.876 1.508-1.752.611.124.927 1.11.706 2.201-.221 1.092-.896 1.876-1.507 1.753z"/></g><g><path fill="#030304" d="M69.283 58.492c-.221-1.092.095-2.078.706-2.201.612-.124 1.287.66 1.508 1.752.221 1.092-.095 2.077-.706 2.201-.612.124-1.287-.66-1.508-1.752z"/></g><g><g><path d="M47.875 57.121l-6.293-1.452h.08l-4.275 1.291 4.195-1.613h.08l6.294.968z"/></g></g><g><g><path d="M66.754 56.637l6.293-1.048h.081l4.276 1.694-4.357-1.372h.081l-6.212 1.453z"/></g></g><g><g><path d="M66.593 60.268l5.809.323-.162.08 4.6-3.227-4.357 3.55h-.162l-5.728.08z"/></g></g><g><g><path d="M48.198 60.913H42.47l-.162-.08-4.357-3.55 4.6 3.227h-.162l5.809-.403z"/></g></g><g><path fill="#e5ab5b" d="M85.31 43.487l8.15-3.873 4.76-18.395L94.991.403l-8.31 2.744-22.67 26.947z"/></g><g><path d="M73.773 36.225l6.858-5.97 1.775-9.762 7.503-8.31-4.276 19.363-9.359 6.293z"/></g><g><path fill="#d28046" d="M51.99 29.529l-6.132 3.55L28.351 2.904z"/></g><g><path fill="#d28046" d="M63.527 29.932l5.406 3.389L86.359 3.308z"/></g><g><g><path fill="#010202" d="M35.047 77.776c-.323.564-.484 1.13-.484 1.694.645.645.726.161 1.775-.404"/></g></g><g><g><path fill="#010202" d="M27.544 80.277c-.968-.081-.726.806-1.21 1.694-.323.565-.485 1.21-.323 1.856.726.645.726.242 1.775-.646.403-.323.726-.807 1.13-1.533-.243-.322-.727.162-.727 0 0-.242.162-.322 0-.403-.161-.162-.242.08-.403.08-.646-.16-.404-.322-.242-1.048z"/></g></g><g><g><path fill="#010202" d="M16.168 96.332c-.968-.08-.807.726-1.21 1.614-.323.564-.484 1.371-.323 1.936.726.645.726.08 1.775-.807a5.133 5.133 0 0 0 1.29-1.533c-.241-.323-.806.242-.887.08 0-.241.242-.322.081-.483-.161-.162-.323.242-.484.161-.646 0-.404-.161-.242-.968z"/></g></g><g><g><path fill="#010202" d="M18.508 81.245c-.969-.08-.727.726-1.21 1.613-.323.565-.485 1.21-.323 1.856.726.645.726.242 1.694-.565.403-.322.807-.887 1.21-1.613-.242-.323-.807.242-.887.08 0-.242.242-.322.08-.484-.161-.161-.242.242-.484.162-.484-.081-.242-.323-.08-1.05z"/></g></g><g><g><path fill="#010202" d="M22.784 74.064c-.242.323-.484.807-.646 1.21-.161.404-.242.969-.161 1.372.807.484.887.08 1.855-.726.404-.323.727-.888 1.13-1.533-.242-.323-.645.161-.726 0 0-.242.08-.242 0-.403-.162-.323-.323-.162-.565-.484"/></g></g><g><g><path fill="#010202" d="M5.034 90.523c-.968-.08-.726.726-1.21 1.614-.323.564-.404 1.29-.323 1.855.726.646.726.162 1.694-.645.404-.323.888-.888 1.291-1.533-.242-.323-.807.242-.807.08 0-.241.242-.403.081-.483-.161-.162-.242.16-.484.08-.565-.161-.403-.242-.242-.968z"/></g></g><g><g><path fill="#010202" d="M31.174 86.489c-.968-.08-.726.807-1.21 1.694-.323.565-.484 1.21-.323 1.856.727.645.727.242 1.775-.645.404-.323.726-.807 1.13-1.533-.242-.323-.726.161-.726 0 0-.242.161-.323 0-.404-.162-.161-.242.08-.404.08-.645-.16-.403-.322-.242-1.048z"/></g></g><g><g><path fill="#010202" d="M6.97 98.188c-.968-.081-.726.726-1.21 1.613-.323.565-.403 1.291-.323 1.856.727.645.727.161 1.695-.646.403-.322.887-.887 1.29-1.532-.241-.323-.806.242-.806.08 0-.242.242-.403.08-.484-.16-.161-.242.162-.484.08-.645-.16-.403-.241-.242-.967z"/></g></g><g><g><path fill="#010202" d="M13.102 88.748c-.968-.08-.726.726-1.21 1.614-.323.564-.404 1.29-.323 1.855.726.646.726.162 1.694-.645.404-.323.888-.888 1.291-1.533-.242-.323-.807.242-.807.08 0-.241.242-.403.081-.483-.161-.162-.242.16-.484.08-.565-.161-.403-.242-.242-.968z"/></g></g><g><g><path fill="#010202" d="M22.542 89.232c-.969-.08-.807.726-1.291 1.614-.323.565-.484 1.371-.323 2.017.726.645.726 0 1.694-.807a5.86 5.86 0 0 0 1.291-1.452c-.242-.323-.887.242-.968.08 0-.242.242-.322.08-.403-.16-.161-.241.161-.483.08-.404-.322-.162-.403 0-1.129z"/></g></g><g><g><path fill="#010202" d="M40.13 83.665c-.968-.08-.726.726-1.21 1.614-.323.565-.404 1.29-.323 1.855.726.646.726.162 1.694-.645.404-.323.888-.887 1.291-1.533-.242-.323-.807.242-.807.08 0-.241.242-.403.08-.483-.16-.162-.241.161-.483.08-.565-.161-.404-.242-.242-.968z"/></g></g><g><g><path fill="#010202" d="M10.6 81.89c-.967-.08-.725.726-1.21 1.614-.322.565-.403 1.29-.322 1.855.726.646.726.162 1.694-.645.404-.323.888-.887 1.291-1.533-.242-.323-.807.242-.807.08 0-.241.242-.403.081-.483-.161-.162-.242.161-.484.08-.646-.16-.403-.242-.242-.968z"/></g></g><g><g><g><path fill="#010202" d="M78.937 78.26c.323.564.645 1.13.565 1.694-.646.645-.726.242-1.856-.403"/></g></g><g><g><path fill="#010202" d="M86.602 80.922c.968-.08.645.646 1.129 1.533.323.565.645 1.29.484 1.936-.726.646-.726 0-1.775-.806a5.859 5.859 0 0 1-1.29-1.453c.241-.322.887.242.887.081 0-.242-.242-.323-.08-.403.16-.162.241.161.483.08.404-.161.242-.242.162-.968z"/></g></g><g><g><path fill="#010202" d="M97.897 96.977c.968-.08.645.646 1.049 1.533.322.565.564 1.21.484 1.856-.726.645-.726.161-1.775-.645-.404-.323-.726-.807-1.13-1.453.242-.322.726.162.807 0 0-.242-.161-.242 0-.322.161-.162.161 0 .403 0 .484-.242.323-.242.162-.969z"/></g></g><g><g><path fill="#010202" d="M95.557 81.729c.968-.08.645.645 1.13 1.533.322.565.645 1.371.484 1.936-.726.646-.807 0-1.775-.887-.404-.323-.807-.726-1.21-1.453.241-.322.726.162.726 0 0-.242-.162-.242 0-.403.16-.161.16 0 .403 0 .565.08.403 0 .242-.726z"/></g></g><g><g><path fill="#010202" d="M91.2 74.468c.242.322.484.726.646 1.13.161.403.242.806.161 1.21-.807.483-.645.08-1.614-.727a5.86 5.86 0 0 1-1.29-1.452c.242-.323.887.242.968.08 0-.241-.242-.241-.08-.403.16-.322.16-.322.402-.564"/></g></g><g><g><path fill="#010202" d="M109.03 91.088c.969-.08.646.645 1.13 1.533.323.564.646 1.29.565 1.936-.726.645-.807.08-1.775-.807-.403-.322-.726-.726-1.13-1.452.242-.323.727.161.807 0 0-.242-.161-.242 0-.323.162-.161.162.081.404.081.322-.08.161-.242 0-.968z"/></g></g><g><g><path fill="#010202" d="M82.89 87.054c.968-.08.646.726 1.13 1.533.322.564.645 1.21.484 1.855-.726.646-.807.162-1.775-.645-.404-.323-.726-.807-1.13-1.533.242-.323.726.161.807 0 0-.242-.161-.242 0-.323.162-.161.162.162.404.162.484-.162.242-.323.08-1.05z"/></g></g><g><g><path fill="#010202" d="M107.175 98.752c.968-.08.645.646 1.13 1.533.322.565.645 1.291.564 1.937-.726.645-.807.08-1.775-.807-.403-.323-.726-.726-1.13-1.452.243-.323.727.161.808 0 0-.242-.162-.242 0-.323.16-.161.16.08.403.08.242-.08.08-.241 0-.968z"/></g></g><g><g><path fill="#010202" d="M100.963 89.313c.968-.08.645.726 1.13 1.613.322.565.645 1.291.564 1.937-.726.645-.807 0-1.775-.807-.404-.323-.726-.726-1.21-1.452.242-.323.726.161.726 0 0-.242-.242-.323-.08-.484.16-.162.241.161.483.161.484-.161.323-.242.162-.968z"/></g></g><g><g><path fill="#010202" d="M91.523 89.716c.968-.08.565.726 1.049 1.614.323.565.645 1.21.484 1.775-.726.645-.807.242-1.775-.646-.403-.322-.726-.806-1.13-1.533.242-.322.646.162.727 0 0-.242-.162-.242 0-.403.16-.161.242.08.403.08.565-.08.403-.16.242-.887z"/></g></g><g><g><path fill="#010202" d="M73.935 84.15c.968-.081.645.725 1.13 1.613.322.565.564 1.21.403 1.775-.726.645-.726.242-1.695-.646-.403-.322-.726-.806-1.13-1.452.243-.322.808.162.808 0 0-.242-.323-.322-.162-.403.162-.162.242 0 .404 0 .564-.08.403-.162.242-.888z"/></g></g><g><g><path fill="#010202" d="M103.464 82.455c.968-.08.645.726 1.13 1.614.322.564.645 1.29.564 1.936-.726.645-.807 0-1.775-.807-.403-.323-.726-.726-1.21-1.452.242-.323.726.161.726 0 0-.242-.242-.323-.08-.484.16-.162.241.161.483.161.565-.161.323-.242.162-.968z"/></g></g></g><g><path fill="none" stroke="#ddd" stroke-miterlimit="50" d="M25.043 72.45v0l-14.361 8.795v0L1.162 94.88v0l.887 9.52v0l109.24-.242v0l.888-10.327v0l-9.52-13.635v0l-13.07-8.31v0"/></g><g><g><path fill="#b5191a" d="M2.049 104.4l109.24-.242-45.422-17.75-9.278 4.6-7.907-4.358z"/></g></g><g><path fill="#d28046" d="M68.287 104.32H45.858l2.501-17.912h17.508z"/></g><g><path fill="#c2c1c1" d="M48.682 86.408h17.346l-9.44 4.6z"/></g></g></g></svg>