<svg xmlns="http://www.w3.org/2000/svg" width="49" height="77" viewBox="0 0 49 77"><g><g><g><path fill="#221c15" d="M35.473 38.475a2.743 2.743 0 1 1 5.486 0 2.743 2.743 0 0 1-5.486 0z"/></g><g><path fill="#221c15" d="M8.42 38.325a2.743 2.743 0 1 1 5.486 0 2.743 2.743 0 0 1-5.486 0z"/></g><g><g><path fill="#a39e7f" d="M8.834 41.068c-.263.977-.3.94-.526 1.916-.263.977.6 1.165.375 2.142-.263.977-.15.977-.413 1.954s.376 1.127.113 2.066c-.263.977-2.217.451-2.48 1.428-.263.977-.338.94-.601 1.879-.263.977.601 1.165.376 2.142-.264.976-1.165.713-1.39 1.69-.264.977 1.953 1.54 1.69 2.48-.263.977-1.052.752-1.315 1.729-.263.977-.038 1.014-.263 1.991-.263.977-1.315.676-1.54 1.653-.264.977-.376.94-.64 1.879-.262.977.527 1.165.264 2.142-.263.977-.3.939-.564 1.916-.263.977-.789.827-1.052 1.766-.263.977-.564.864-.827 1.841s.79.601 1.39 1.428c.564.789-.037.94.94.902.977 0 .977-.602 1.916-.602.977 0 .977-.112 1.917-.15.976 0 .976-.676 1.916-.676.977 0 .977 1.954 1.916 1.954.977 0 .977-1.766 1.916-1.766.977 0 .977 2.066 1.917 2.066.977 0 .977-1.728 1.916-1.728.977 0 .977-.075 1.916-.075.977 0 .977 1.916 1.916 1.916h1.917c.977 0 .977-.226 1.916-.226.977 0 .977.113 1.916.113.977 0 .977-1.24 1.916-1.24H29.2c.977 0 .977-.037 1.916-.037.977 0 .977.676 1.916.676.977 0 .977-1.39 1.916-1.428.977 0 .977-.3 1.917-.3.977 0 .977 1.202 1.916 1.202.977 0 .977 1.127 1.916 1.127.94 0 1.278-.45 1.917-1.165.638-.713-.527-.864-.64-1.803-.112-.94.076-.977-.037-1.916-.113-.94 1.353-1.09 1.24-2.067-.113-.94-.15-.94-.263-1.879-.113-.939-.225-.939-.338-1.878-.113-.94-1.578-.79-1.69-1.729-.114-.939.375-.977.262-1.954-.113-.939.226-.976.113-1.916s-1.165-.826-1.278-1.766c-.112-.94-.488-.902-.6-1.84-.114-.94.863-1.053.75-1.992-.112-.94.301-.977.189-1.917-.113-.939.375-1.014.263-1.953-.113-.94-1.954-.714-2.067-1.654-.113-.939 1.841-1.164 1.728-2.104-.112-.94-.3-.902-.413-1.878-.113-.94-.376-.902-.488-1.842-.113-.939-.526-.901-.64-1.84"/></g></g><g><path fill="#d6d3b9" d="M6.166 35.094c.038-.413.864-1.729.864-1.729l6.726-4.621 4.434-4.997 4.245-.376 2.33.789 2.104-.977 4.246.376 4.434 4.997 6.725 4.622s.376 1.84.564 2.292c.639 1.503-1.879 3.005-1.879 3.005.489-1.615-2.555-3.005-2.555-3.005s-3.269.375-3.08 3.268c0 0-.189 2.33 3.644 2.894v2.33l-1.729 1.728.977 8.867-1.728 4.622-1.916 2.893-3.27 2.104s-5.335 5.448-13.3.188l-3.27-2.104-1.915-2.894-1.729-4.621.977-8.868-1.728-1.728v-2.33c3.87-.563 3.644-2.893 3.644-2.893.188-2.893-3.08-3.269-3.08-3.269s-2.706.038-2.443 2.668c-.038 0-2.555-1.352-2.292-3.231z"/></g><g><path fill="#c58f75" d="M31.115 23.521l2.592-2.104 4.134-8.003.526-4.772-.752-6.237L38.855 0l4.885 1.014L47.873 5.9 49 10.784l-.864 6.5-2.405 5.26-3.006 4.284-.45 6.312-6.726-4.622z"/></g><g><path fill="#c58f75" d="M18.453 23.784l-2.63-2.104-4.134-8.003-.488-4.772.751-6.275-1.24-2.367-4.884 1.015-4.133 4.884-1.127 4.885.864 6.5 2.367 5.26 3.006 4.246 1.578 5.974 5.636-4.246z"/></g><g><path fill="#bcb895" d="M12.178 35.958l6.5-3.87 1.991 1.991-.488 9.506-1.766 2.894-.639 2.367.639 1.014-.751 1.503.375 2.142-2.367 1.616-.113 3.269 1.015 3.005 1.766 3.119-4.096-2.442-1.916-2.893-1.728-4.622.977-8.867-1.203-1.54v-2.33s1.766-2.217 3.119-2.593c-.075 0 .075-2.63-1.315-3.269z"/></g><g><path fill="#110c09" d="M30.589 60.38l-3.006.64-2.367-.865-.752-1.878-.488 1.991-2.255 1.015-2.893-.263s5.862 6.876 11.76-.64z"/></g><g><path fill="#e0dcca" d="M28.597 43.585l-4.508-1.728-3.87 1.728-1.766 2.894-.263 1.503-.376.864.639 1.014 1.878-.375 1.503.488 1.24 3.908h1.879l2.254-4.284 1.39-.225 1.729.488.639-1.014-.376-1.729z"/></g><g><path fill="#221c15" d="M30.326 49.86l-1.729-.488-1.39.225-2.254 4.284h-1.879l-1.24-3.908-1.503-.488-1.878.375-.752 1.503.376 2.142.864-1.879 1.879.226 2.254 3.156h2.142l2.63-3.156h1.616l1.24 1.653.375-2.142z"/></g><g><g><path fill="#bcb895" d="M11.2 9.206l.339 1.54.225 1.616.564 1.503.451 1.766.676 1.728 1.503 1.24.338 1.879.94 1.615 1.69.602 1.165 1.427-1.503 1.203-1.315 1.277-1.014 1.503-1.165 1.353-1.616.526-1.315 1.09-1.465.864-1.315 1.127-1.578.902-.338-1.804.751-1.728.038-1.691-.414-1.578L7.97 28.33l1.916.15 1.127 1.165-.413-1.54.112-1.73-.225-1.615-.639-1.616-.263-1.615-.075-1.691-.188-1.653-1.127-1.616 1.052-1.428.3-1.578.451-1.503.264-1.578z"/></g></g><g><g><path fill="#bcb895" d="M38.33 8.492l-.377 1.615-.3 1.616-.564 1.503-.488 1.766-.677 1.728-1.427 1.315-.977 1.578-.64 1.691-1.201 1.165-1.428 1.09 1.465 1.052.676 1.728 1.466 1.015 1.014 1.465 1.804.564 1.277 1.352 1.729.714 1.052 1.653 1.615.263.79-1.427-.264-1.804-.15-1.803.3-1.842-1.652.94-1.654.826-1.728 1.128.639-1.804.488-1.616-.413-1.803.864-1.503.225-1.69-.263-1.767.64-1.578.713-1.616-.338-1.615-.676-1.428-.489-1.465-.113-1.616z"/></g></g><g><path fill="#bcb895" d="M36.939 36.221l-6.65-3.87-2.067 1.991.488 9.507 1.804 2.893.638 2.367-.638 1.014.751 1.503-.376 2.142 2.443 1.616.112 3.269-1.014 3.005-1.804 3.12 4.209-2.443 1.954-2.893 1.766-4.622-.977-8.867 1.24-1.54v-2.33s-1.804-2.217-3.194-2.593c.037-.038-.113-2.668 1.315-3.269z"/></g><g><path fill="#8e8c8a" d="M38.216 37.95a1.014 1.014 0 1 1 2.03 0 1.014 1.014 0 0 1-2.03 0z"/></g><g><path fill="#8e8c8a" d="M9.285 37.95a1.014 1.014 0 1 1 2.029 0 1.014 1.014 0 0 1-2.03 0z"/></g></g></g></svg>