<svg xmlns="http://www.w3.org/2000/svg" width="170" height="87" viewBox="0 0 170 87"><g><g><g><path fill="#506863" d="M101 86.622l6-11.8 5.2-.8 8-6.8 13.8-8.3 15.2-13s-10.2.8-29.2 12.5c0 0 .7-8.2-9.1-9.4 0 0-7.5-3.3-22.3 2.1l-32.3 8.8s17.1 12.8 15.1 26.8"/></g><g><path fill="#c5e4df" d="M169.4 23.922s-4-1.3-20.3 3.3c0 0-16.7 6-30.7 4.3l-13.9 5.3 3.9 8.1-12.7.7-7 5.3s28.3-10 31.3 7.3c0 0 16.7-9.7 27.7-11.7 0 .1 25-11.9 21.7-22.6z"/></g><g><path fill="#7fb63f" d="M118.7 31.622c14 1.7 30.7-4.3 30.7-4.3 16.3-4.7 20.3-3.3 20.3-3.3s1-6-5.3-10.3l-8.7-5-21-4.3s-17-11-37.3 1.7c0 0-13-4.3-16 9.7 0 0-3.3 25.7 2.3 28.7 0 0 8.3.7 21.7-7.3z"/></g><g><path fill="#dfecec" d="M108 49.922l-4.7 4.3 3.3 4.3-.7 6.3s7.3 2 12.7-5c.1.1 1.1-10.2-10.6-9.9z"/></g><g><path fill="#dfecec" d="M86.7 52.922l-4.7 3.3 1 7 3 3 1 3.7 5.7 3s7.3-1.3 11-5.7l1-7.7-3-4.7c0 .1-1.3-6.5-15-1.9z"/></g><g><path fill="#0e130d" d="M90.7 43.122s2.8-9.2-2.7-15.3c0 0-2.5-3.2-7.7.5v7.2s1.3-3.2 5.7-3.8c0 0 5.2 1.2 2.8 11.7z"/></g><g><path fill="#dfecec" d="M106.2 48.922l.5 1.2-3.3 2.5-4.2-1.5.3-1.7s-.1-.5 6.7-.5z"/></g><g><path fill="#dfecec" d="M98.4 48.922l-.2 1.9-7.2.3z"/></g><g><path fill="#75661a" d="M157.9 10.622s-2.6 4.7 3.2 5.8c.9.2 3.8-1.3 2-3.2z"/></g><g><g><path fill="#0e130d" d="M108 14.822c1.2 1.5 2.7 2.6 4.4 3.5.8.4 1.7.8 2.6 1 .4.1.9.2 1.3.3.5.1.9.1 1.3.1 1.8 0 3.6-.5 5.3-1.3 1.7-.8 3.2-2 4.2-3.6-.7 1.8-2.2 3.3-3.9 4.3-1.7 1-3.6 1.6-5.7 1.6-.5 0-1-.1-1.5-.2s-1-.2-1.4-.4c-.9-.3-1.8-.7-2.7-1.2-1.5-1-3-2.4-3.9-4.1z"/></g></g><g><g><path fill="#0e130d" d="M148.4 7.622c.7.6 1.2 1.5 1.5 2.4.3.9.3 1.9.2 2.9-.1 1-.5 1.9-.9 2.7-.2.4-.5.8-.7 1.2-.3.4-.6.8-.9 1.1.2-.4.4-.8.7-1.2.2-.4.4-.8.6-1.3.3-.9.6-1.7.7-2.6.2-1.8-.1-3.7-1.2-5.2z"/></g></g><g><g><path fill="#0e130d" d="M144 6.622c-.5.3-1.1.5-1.6.8l.1-.1c.3.9.5 1.8.8 2.6v.1l-.1.1-2.5 1.5.1-.3c.1.6.2 1.1.3 1.7v.1l-.1.1c-.8.8-1.6 1.7-2.4 2.5v-.2c.5 1.2.9 2.4 1.3 3.6-.6-1.1-1.1-2.3-1.7-3.4v-.1l.1-.1c.7-.9 1.5-1.7 2.3-2.5l-.1.2c-.1-.6-.2-1.1-.3-1.7v-.2l.1-.1 2.5-1.5-.1.2-.6-2.7v-.1h.1c.7-.1 1.3-.3 1.8-.5z"/></g></g><g><g><path fill="#0e130d" d="M142 12.822c1 .3 2 .8 2.9 1.3l.2.1-.1.2c-.2.6-.5 1.2-.7 1.7-.3.6-.5 1.1-.9 1.7.1-.6.3-1.2.5-1.8l.6-1.8.1.3c-.8-.5-1.7-1.1-2.6-1.7z"/></g></g><g><g><path fill="#0e130d" d="M121.4 32.022l-.7 4.3-.3-4.4z"/></g></g><g><g><g><path fill="#0e130d" d="M164.4 23.722l-.7-3.6 1.7 3.2z"/></g></g><g><g><path fill="#0e130d" d="M159.4 24.522l-.9-2.9 1.8 2.4z"/></g></g><g><g><path fill="#0e130d" d="M153.3 26.022l-1.1-3.1 1.9 2.6z"/></g></g><g><g><path fill="#0e130d" d="M145.2 28.122l-.5-3.5 1.5 3.2z"/></g></g><g><g><path fill="#0e130d" d="M136.7 30.522l.2-4.4.8 4.3z"/></g></g><g><g><path fill="#0e130d" d="M128.4 31.522l.3-3.4.7 3.3z"/></g></g><g><g><path fill="#0e130d" d="M123.1 31.922v-2.9l1 2.7z"/></g></g><g><g><path fill="#0e130d" d="M161.9 24.422l1.5 3.7-2.4-3.3z"/></g></g><g><g><path fill="#0e130d" d="M156.1 25.422l2.1 4.7-2.9-4.3z"/></g></g><g><g><path fill="#0e130d" d="M149.2 27.422l2.3 4.4-3.2-3.9z"/></g></g><g><g><path fill="#0e130d" d="M143 29.422l.7 3.9-1.6-3.5z"/></g></g><g><g><path fill="#0e130d" d="M135.9 30.922v4.4l-1-4.3z"/></g></g><g><g><path fill="#0e130d" d="M128.4 31.922v4.2l-1-4.1z"/></g></g><g><g><path fill="#0e130d" d="M116.5 32.822l-.3 3-.7-3z"/></g></g></g><g><path fill="#adadac" d="M160.5 38.922l-.8 3.9-.8-2-1.5 4.8-1.7-2.8-3 7.8-1.7-3.3.2 5.7-3.3 3.5.7-4.2-2-1.2-1 5.8-2.8 4-2.5-4.5-3.5 7-2.3-3.3-1.7 7.5-2.7-3.5-3.8 8.3-2.3-5.7-2 8.7-3-4.5-3 8.5-1.5-4.5-2.8 6-3.5-4.5-1.2 7-1.3-1.7-1.2 4.6-6.4.1 9.1-11.8 5.2-.8 8-6.8 13.8-8.3 14.5-12.4c-.2.1 11-6.2 11.8-7.4z"/></g><g><path fill="#95a8c4" d="M82.5 11.322s-9.8 1.6-20.6 4.1c0 0-15.9-10.8-26.9-12.1 0 0 20 10 22.3 17.8 0 0-23.3-16-29.2-14.7 0 0 9.7 3.2 14.7 12.5 0 0 5.3 5.5 9 7.3 0 0-23.3-18.3-29.2-17 0 0-3-.2-4.5 1.2 0 0 8.8 2.2 12.8 7.7 0 0 8.7 10 11.7 12.5 0 0-23-19.3-31.2-16.3 0 0 15.8 8.2 23.8 20 0 0-20.8-16.7-26.8-13.8 0 0 8.8 5.5 10.7 10 0 0 5.3 7.7 8.7 9.7 0 0-15.8-9.7-22.8-7.3 0 0-4.3.7-5 3.2 0 0 6.5-1.7 13.7 3.3 0 0 6.7 4 7.3 5.3 0 0 7.7-4.3 15.2-6.8 0 0 16.7-3 24.8-9.8 0-.2 14.2-15 21.5-16.8z"/></g><g><path fill="#4f8230" d="M28.2 57.922c11.1-1.5 27.2 1.3 27.2 1.3l18.3 7.7 9.3 7.2 9.7-1.2-5.7-3-1-3.7-3-3-.5-7.3 5-3.3 8.2-7 12.7-.7-3.7-8.2c-14.8 7.3-20.8 7.3-20.8 7.3-5.7-5.7-1.3-32.8-1.3-32.8-5.7 1.2-19.2 13.7-19.2 13.7-5.8 8.3-25.3 12.3-25.3 12.3-15.5 4-26 13.4-26 13.4l-.4 18.6c-.1.1 9-10.3 16.5-11.3z"/></g><g><path fill="#a7b859" d="M72 86.322s2-18.8-15.7-27.5c0 0-24.3-4.2-32.8.7 0 0-12.8 7.7-12 10.3v16.5z"/></g><g><path fill="#0e130d" d="M108.5 11.422s5.9 5.2 8.3 5.4c0 0 1.8.4 5.9-2.1 0 0 3.1-2.1 4.1-2.2 0 0-2.6-1.4-5.3-2 0 0-6.5-3.7-13 .9z"/></g><g><g><path fill="#888068" d="M113.3 12.622a4.2 4.2 0 1 1 8.4 0 4.2 4.2 0 0 1-8.4 0z"/></g><g><path d="M116 12.322a1.7 1.7 0 1 1 3.4 0 1.7 1.7 0 0 1-3.4 0z"/></g></g><g><g><path d="M169.6 24.422c-2-.3-4.2-.1-6.3.1-2.1.2-4.3.6-6.4 1.1-1.1.2-2.1.5-3.1.8-1 .3-2.1.7-3.1 1-2.1.7-4.2 1.3-6.2 1.8-4.2 1.2-8.5 2-12.8 2.5-2.2.3-4.3.5-6.5.5s-4.4 0-6.5-.5l-7.5 2.9 7.5-3.1c2.1.5 4.3.5 6.4.4 2.2-.1 4.3-.3 6.5-.6 4.3-.6 8.5-1.5 12.7-2.7 2.1-.6 4.1-1.3 6.2-1.9 1-.3 2-.7 3.1-1 1.1-.3 2.1-.6 3.2-.8 2.1-.5 4.3-.9 6.4-1.2 2.2-.3 4.3-.5 6.6-.2z"/></g></g><g><path fill="#373519" d="M158.8 11.522s-1.2 3.3.9 3.6c0 0 1.6-.5.4-1.5 0 0-1-.6-1.3-2.1z"/></g><g><path fill="#21271a" d="M148.1 46.622l-14.1 10.5-14.8 8.3s-6 4.8-13 7c0 0-5.5 7.3-9.8 7.3l1.3 7h3.3l6-11.8 5.2-.8 8-6.8 13.8-8.3z"/></g><g><path fill="#c7dda0" d="M126.1 11.722s-4.2-5.6-8.8-5.6c-2.6 0-5.8-1.3-8.8 5.3 0 0 2-3.2 9.5-2.2z"/></g></g></g></svg>