<svg xmlns="http://www.w3.org/2000/svg" width="127" height="120"><path fill="#717982" d="M102.5 42.624l-.212.423.705-.07.846-.071.564.14.282.564.353.423v.705l.705.141.352.353-.141.987.353.352.493.282.352.423.141.635.917-.07v.634l1.198-.212-.493 1.058 1.198-.212-.211.846.07.635.423.352 1.058-.07v.634l-.07.775h.916l-.212.846.282.494-.14.705h1.057l.211.493.775.212-.352.846v.564l.775.211.141.564.141.494v.634l1.058.141-.282.705.705.282.282.493-.917.987 1.27.07.281.494-.423.776.353.493-.564.776.846.211-.141.635-.212.634 1.27.211-.776.776.846.352-.282.635-.282.634.211.494.141.564.282.493 1.128.353-1.128.775.846.353-.352.634-.282.635 1.198.352v.564l-.775.634.14.564.635.212-.14.916 1.057-.423-.212.987.846.07.211.494.141.564.705.353-.987 1.057.282.423 1.34.07-.917.917 1.199.141-.141.705.07.564-.07.564.846.352.282.494-.776.775.564.423.212.564-.353.635.705.423.141.493-.493.705.916.423-.564.634.776.423-.141.564-1.058.776.353.493 1.198.353-.211.634-.07.564-.706.635.212.564.634.423-.352.634-.353.564 1.199.493-1.27.635.283.493.916.494-.634.634-.282.564.07.564 1.199.423-.494.635-.423.564.917.493-.212.564-.423.564.07.564-.563.564.846.564.14.564.071.493-.07.564-.917.564.141.564.423.564-.352.564 1.128.564-.212.493-.423.564.635.564-1.27.564.635.564.141.564-.282.564.846.564-1.34.564.635.564-.634.494 1.41.634-.07.564-.917.493.634.564-.352.846h-.564l-.564-.07-.564.493-.494-1.41-.564 1.128-.564-.211-.564-.353-.493.282-.564-.634-.564.14-.493-.281-.564.352-.564-.07h-.564l-.494-.212-.564.705-.564.282-.493-1.198-.564 1.128-.564-1.27-.564.706-.564.564-.493-.494-.564-.352-.564-.141-.494-.423h-.352l-.423.07.211-.493.635-.494-.564-.634.775-.423-.916-.705.634-.493.564-.494-.14-.564-.494-.634.352-.494.212-.493-.282-.635-.353-.564.635-.493-.423-.564.634-.493.776-.494-.494-.634-.705-.564 1.128-.494-.564-.564.282-.564.494-.493-.564-.635.211-.493.282-.564-.705-.564.282-.564-.07-.564-.07-.564.352-.493.14-.564.635-.494-.07-.564-.917-.634v-.494l.987-.564-.352-.564.211-.493-.775-.564.987-.564-.564-.564.352-.564-.14-.564.422-.564-1.269-.493.987-.564-.634-.564.211-.564-.14-.564.634-.564-.353-.564-.211-.493-.705-.564.14-.564-.07-.494.705-.634-.07-.564-.846-.494.211-.564v-.564l.141-.564-.634-.423.916-.705-.352-.493-.776-.493.917-.705-.494-.423-.705-.494v-.564l.07-.564.917-.705-.423-.493-.916-.423.14-.564.706-.705-.705-.423-.776-.353.423-.704v-.564l-.352-.494-.353-.493.07-.564-.07-.564.282-.705-.634-.353.07-.634-1.128-.141.212-.705-.635-.282.353-.776-.493-.352-.282-.493-.353-.494-.282-.423v-.634l.141-.776-.564-.282-1.057.07.14-.775-.704-.14-.423-.353-.141-.635.07-.775h-.775l-.07-.705-.071-.775-.705-.071-.987.423v-.987l-.282-.564-.987.494.07-1.199-.422-.352-.494-.212-.634.212-.423-.635.352-.493.282-.423-.14-.635.14-.564.07-.493.635-.423.705-.353-.634-.705.634-.422.423-.494-.705-.705.282-.493.282-.494.493-.493-.775-.635 1.198-.423-.564-.564-.493-.634 1.34-.423-.494-.635-.775-.493.775-.564-.211-.564.422-.634z"/><path fill="#dee0e1" d="M91.926 9.984l14.31-8.248s5.851-4.723 7.966 1.41l.705 16.003s.211 3.313-2.82 6.133l-6.344 4.723-5.429 8.67"/><path d="M111.876 13.298l-.212 7.754-4.512 3.525-1.62 2.538-4.724 3.313-1.833 4.935-1.41-.705.917-6.345 7.049-11.068z"/><path fill="#dee0e1" d="M44.412 12.31l-14.31-8.177S24.25-.59 22.134 5.543l-.705 16.003s-.211 3.313 2.82 6.133l6.345 4.723 5.428 8.67"/><path d="M25.378 14.214l.282 7.755 4.441 3.524 1.622 2.609 4.723 3.242 1.903 4.935 1.41-.705-.987-6.345-7.05-10.997z"/><path fill="#dee0e1" d="M71.2 77.871c-21.43.282-29.114-14.804-29.114-14.804C27.07 48.968 39.97 27.82 39.97 27.82s5.64-.212 10.785-4.724c0 0 13.394-6.838 32.64-1.621 0 0 6.344 4.441 12.9 3.313 0 0 16.214 22.347-.493 38.28.07 0-4.864 14.592-24.603 14.803z"/><path fill="#373b4d" d="M69.438 48.968l1.198-1.41 5.64 7.261s4.44.212 4.44 5.64c0 0 1.763 6.133-3.594 7.26 0 0-1.904 2.82-8.248 3.032-6.838.282-8.953-2.326-8.953-2.326-4.794-.705-3.314-8.46-3.314-8.46 0-5.428 4.442-5.64 4.442-5.64l5.64-7.26 1.198 1.41"/><path d="M76.628 32.331s6.838-2.115 10.363-5.85c0 0 9.376 8.459 5.64 17.13 0 0-1.904 7.049-10.363 4.23 0 0-3.525-1.41-6.133-1.2 0 0-6.063-4.934.493-14.31zM59.639 33.953s-6.838-2.115-10.363-5.851c0 0-9.376 8.459-5.64 17.13 0 0 1.904 7.05 10.363 4.23 0 0 3.525-1.41 6.133-1.199 0 0 6.133-4.934-.493-14.31zM61.824 62.01s-.916 5.992 6.556 4.793c0 0 7.261.917 7.261-5.64 0 0-4.441-2.114-7.05 2.82.071.071-1.973-3.947-6.767-1.973z"/><path fill="#d3d1d1" d="M56.396 63.56s-4.441-2.255-1.621-14.098c0 0 2.467-2.115 5.357-1.199 0 0 6.063-4.723-.493-14.31 0 0 7.543 3.524 16.99-1.622 0 0-6.134 10.081-.494 14.31 0 0 1.903-1.198 4.723 1.2 0 0 5.428 10.573 0 15.297 0-.07-10.927-16.849-24.462.423z"/><path fill="#8a9aaf" d="M66.97 56.018s-1.974 4.018-3.031 6.203c0 0 .916 3.031 4.37 2.327l.494-1.551.494 1.621s2.467.353 4.018-2.82l-3.666-5.992-1.41.705z"/><path fill="#717982" d="M96.508 24.93l-.635-.706.353-.493-.141-.564.634-.635-.705-.493.423-.564-.705-.493.635-.635-.494-.493-.352-.423.211-.635-.282-.493.353-.705-.494-.423.282-.635-.705-.352.212-.705-.705-.282.14-.634-.634-.353.141-.705-.423-.423-.634-.282-.423-.282.282-.916-.212-.494-.564-.282-.422-.352-.705-.07-.212-.565v-.775h-.775l.14-.987-.775.07-.564-.14-.211-.705-.423-.353-.776.212-.564-.141-.352-.353-.212-.846h-.634l-.423-.352-.564-.141-.775.493-.423-.352-.353-.917-.564.141-.634.423-.494-.634-.634.564-.423-1.058-.564.07-.635.776-.493-.493-.564-.07-.564.21-.493-.704-.564.211-.494-.14-.634.704-.494-.564-.564.212-.634.352-.423-.916-.635.634-.493-.775-.564.07-.564.494-.564.14-.493.071-.564-.775h-.564l-.564.423-.564-.494-.494.282-.564-.282h-.564l-.564.564-.493.423-.564.07-.634-.916-.494.282h-.564l-.423.987-.705-.916-.352 1.057-.635-.352-.423.634-.705-.634-.493.282h-.635l-.493.282-.493.07-.494.705-.564-.634-.493.634-.635-.705-.423.987h-.564l-.775-.846-.282 1.128-.776-.846-.352.917-.494.282-.423.282-.634-.07-.564.07-.493.211-.494.353-.493.14-.776-.07.07 1.128-.986-.494.14 1.128-.563.141h-.776l-.211.564-.494.282-.07.705-.776.07-.423.353-.352.494-.352.423.211.775-.423.423.07.635-.704.282.07.634-.07.564-.282.493-.917.282v.564l.494.776-.141.493-.635.423.282.635-.846.423.07.564.212.564-.352.564.705.634-.846.493-.07.564.493.564-.353.564-.211.564.423.564-.494.494.776.564-.776.634.07.776.988-.141.564.423.493-.494.494-.14.634.21.353-.845.423-.212.563-.211.705.423.564-.141.494-.212.564-.211.282-.635.282-.564.916.353v-.987l.776.211.282-.564.775.141.353-.493.352-.423.493-.212.423-.423.564-.07.353-.564.775.352.423-.352.353-.634.352-.564.776.564.352-.776.705.353.423-.564.705.493.493-.211.564.07.564-.14.494-.283.564-.211.423-.494.634.212.564.14.564-.07.564.07.494-.634.564.282.493-.493.634.634.564-.07.494-.564.564-.353.564.212.564-.141.564-.141.493.211.564.917.564-.564.564-.212.564-.07.564-.141h.564l.493.705.564-.07.635-.283.423.846.634-.564.635-.352.493.211.564-.07.494.916.493.141.705-.705.493.282.494.564.493.212.705-.564.423.916.635-.564.493.494.635-.212.564-.14.634.21.494.353.211.635.282.704.494.141.845-.282h.564l.07 1.058.706-.212h.634l.212.917.775-.635.353.705.564.07.634-.14.494.14.493.494.635-.705.493.282.564-.14.493.422.564.353.564-.494.494-.352.634.846z"/><path fill="#131817" d="M93.335 68.002s4.935 1.621-1.198 9.87c0 0 9.87-5.852 12.69 2.819 0 0 1.761 17.412-7.05 35.247h15.297s10.08-51.672-11.773-59.92c0 0-1.903 5.146-5.428 7.05z"/><path fill="#cac7c7" d="M40.887 61.94v3.735s12.69 11.068 15.016 28.41l.704 22.065 41.1-.212s14.098-26.788 5.639-37.855c0 0-2.468-4.794-11.28-.212 0 0 6.345-7.754 1.199-9.87 0 0-26.083 25.379-51.25-4.934z"/><path fill="#e5e3e3" d="M34.12 44.033l-1.34-1.198-1.41 1.48-1.41-2.96-1.48.211-1.34 1.199-1.198 1.268-1.48-.422-1.199 1.057-1.269.493-2.114-1.832-.423 2.96-1.551-.282-2.115-1.128-.846 1.551-.705 1.48-2.044-.563.282 2.96-2.75-1.41-1.057 1.058-.141 1.974-1.058.916-.775.141-.494-.846 1.904-.916-.423-1.621 1.269-.987.846-1.199-1.41-2.326.423-1.551 2.256-.282-.494-2.185 2.609.282 1.339-.705.211-1.763 1.622-.352.705-1.34 1.269-.775 1.269-.564.775-1.621 1.34-.635 1.127-.987 2.115 1.41.846-2.044 1.269-.987 1.692 1.128.987.916-.07 1.763.493 1.269 2.89-.141-1.692 2.537 1.763.635.423 1.34 1.832 1.057.141 1.692"/><path fill="#070807" d="M2.185 69.623l1.692-2.397-.916-2.467 1.621-.564 1.058-.916-.07-1.974 1.338-.776 2.89.987.353-1.692.564-1.41 1.551-.282 1.833.071-.212-2.679.987-1.057 1.974.564 1.41-.353.564-1.903.917-1.48 2.537 2.326 1.058-.846 1.55.423.494-3.525 1.622.846 1.268-.846 1.41-.493 1.41-.987 1.551.705 1.48-.494.988 3.807 1.057-1.692 2.115-1.55-1.48-1.34-1.904-1.27.987-1.62 1.128-1.692-.494-1.692-2.114 1.833-1.34.563-1.41-.07-1.55-1.269-1.2 1.269-1.761-1.762-1.34.564-1.41.282-1.621-.353-.282 3.454-2.397-2.397-1.55.212-1.129 1.057-.352 2.327-1.128.846-.917 1.128-2.114-.635-.423 1.833-2.115-.352.14 2.185-2.537-.353-1.199.917 1.763 3.031-2.679-.07-1.269.987 2.115 2.608-2.679.352 1.128 1.904-1.621.987 1.41 1.762-3.878.634-.07 1.551z"/><path fill="#e5e3e3" d="M8.107 88.798l-1.833-3.736 2.256-.705-1.904-2.397 3.596.14 1.128-.916.634-1.128.705-1.127.635-1.199.916-.987-.423-2.326 1.833-.141.775-1.199-.14-2.678 1.903.211 2.608 1.762.846-1.268 1.621.493.987-1.198.776-1.974 1.48-.141 1.48.564 1.058-3.032 1.55 1.128 1.41-.775h1.481l1.48.423 1.27 2.044 1.55-1.48 1.128 2.115 2.045-3.314-.212 2.327 2.326-1.41-3.313-.705 2.467-1.903-3.383-.705.14-1.41-.14-1.34 2.679-1.974-2.75-.775-.987-.916 2.82-3.173h-3.031l.846-2.326-2.327-.353-1.198-1.057-1.48-1.128-1.41.564-1.199 2.96-1.198.917-2.045-3.947-1.268 1.057-.635 3.384-1.198.493h-1.41l-2.609-3.172-.916 1.621-1.833-.423-.564 2.115-1.41.282.423 3.384-1.269.493-2.114-.634-1.551.352-.423 1.692.423 2.327-2.397-.494-1.41.635.634 2.326-2.82-.493v1.762l-.281 1.48.352 1.833-4.23-.987 2.609 2.75-1.199.775.212 1.34-2.68 1.41 2.257 1.268-.846 1.48 1.762 1.058-2.538 2.115 1.622.987 2.96.14-.281 1.552.564 1.128 1.903-.423z"/><path fill="#070807" d="M6.838 97.75l-.634-1.198.211-1.762 4.37 1.762-1.41-3.172 2.539.634.423-1.55 1.762.07-.423-3.172 1.55-.353 2.61 2.327.281-2.82 1.622.493 1.762 1.199.775-2.468.846-3.242 2.256 5.498 1.128-1.974 1.41.635 1.269-1.34 1.41-1.127 1.34 1.057 1.48-.635 1.762-2.326.705 4.018 1.903-1.621.635 2.89 2.397-2.96-.282 5.005 2.537-2.89 2.045-1.27-.494 4.865 2.397-1.974 1.763-.423 1.41.493.986 1.34v2.678l2.397-.987.282 1.974 1.833.07-.564 2.539 3.031 2.82.353-4.019-3.243-1.128.917-1.48 2.185-1.762-1.48-1.199-2.397-.916-.917-1.128.987-1.692-1.198-1.058-.07-1.41-.494-1.268.423-1.692.987-2.045-3.032-.07.776-1.974.916-2.326-2.96.211-1.763-.423.212-1.903-1.34-.705.282-2.326-1.692-.635-2.115 1.833-.775-2.89-1.198-1.692-1.41-.212-1.622 1.27-1.269-1.622L35.53 69.2l-1.339-1.48-1.41-1.128-1.48-.07-1.41 1.55-1.27 1.763L27 67.93l-1.34.846-1.269.705-1.692-.564-1.269.776-1.057 1.198-1.057 1.128-.564 1.55-3.032-1.62-.916 1.41-1.269.916 2.115 3.313-.141 1.974-4.089-1.833-1.621.635 2.044 3.524-.493 1.199-1.692.564-1.833.705 2.044 2.396-2.044.635-3.384.634 1.269 1.833 2.75 1.833-2.539 1.199 3.314 1.41-5.499 1.62 4.582 1.058z"/><path fill="#e5e3e3" d="M7.613 113.753l2.468 1.903 1.057-1.127 2.115 1.41h1.48l-.493-5.147 3.102 4.512.493-2.75 1.41-.281.564-3.314 1.48-.282 2.468 5.217.352-6.203 1.763 1.832 1.692 3.032 1.339.282 1.198-3.807 1.48 1.55 1.41-.845 1.27 1.48 1.127 2.045 1.34-.282 1.48-.705 1.128 1.057 2.82-4.794.846 2.186.987 1.48.352 2.609 3.596-4.09-.212 3.455 2.82-1.833-2.044 5.71 2.326-.916 1.128 2.326 1.762-2.82 2.045 1.128.845-1.621 1.833-.776-.564-1.903-2.749-2.044 3.384-.705 1.198-1.27.564-1.48-1.55-1.41 1.268-1.41-2.467-1.339 1.057-1.41.353-1.41-3.243-1.127.564-.846-.634-.423v-2.045l-.776-1.269-.352-1.833-2.961 1.551-1.763.07 2.045-5.286-1.48-.423-3.737 3.313.564-3.807-2.185 1.058.14-3.455-1.691.212-.987-1.48-1.621.07-.987-1.833-2.468 3.313-1.48.423-1.269-.352-1.48 1.198-1.199-2.044-1.34 1.55-1.41-2.114-1.057 2.608-2.396-5.146-.705 3.525-.635 2.326-2.82-3.524-.705 1.973-.282 2.609-1.762-.423-.564 1.692-.282 1.833-3.807-2.68.635 2.962-1.199.704h-1.973l-2.609-.423.353 2.256-1.27.846.212 1.974-2.608-.14-.493 1.48-1.833.846 4.723 3.454-4.37.07 1.55 1.833-.564 1.27-2.96.775-.988 1.339 2.045 1.762 2.608 1.41 1.269.846-.846.917v.352l.212 2.397 1.127-1.833z"/><path fill="#de9848" d="M80.364 39.804a4.23 4.23 0 1 1 8.46 0 4.23 4.23 0 0 1-8.46 0z"/><path fill="none" stroke="#000" stroke-miterlimit="50" d="M80.364 39.804a4.23 4.23 0 1 1 8.46 0 4.23 4.23 0 0 1-8.46 0z"/><path fill="#de9848" d="M47.514 40.297a4.23 4.23 0 1 1 8.459 0 4.23 4.23 0 0 1-8.46 0z"/><path fill="none" stroke="#000" stroke-miterlimit="50" d="M47.514 40.297a4.23 4.23 0 1 1 8.459 0 4.23 4.23 0 0 1-8.46 0z"/><g><path d="M82.69 39.804a1.903 1.903 0 1 1 3.807 0 1.903 1.903 0 0 1-3.806 0z"/></g><g><path d="M49.84 40.297a1.903 1.903 0 1 1 3.807 0 1.903 1.903 0 0 1-3.807 0z"/></g><g><path fill="#070807" d="M28.691 33.741l-1.057-.14-1.34.986-1.198 1.128-1.269.705-1.48.07-1.41.353-1.621-.212-1.199.987-1.34.564-1.762-.423-1.339.776-.493 1.621.986-.775 1.34-.635.423-1.621 1.41-.494.211-1.903 1.974.212.282-1.974h1.762l1.34-.423 1.128-.846.846-1.622 1.833.141.916 1.48 1.762.635z"/></g><g><path fill="#070807" d="M8.741 115.938l1.058-.423 2.044.494-.493-3.243 1.41-.423.352-2.326 2.397 1.48 1.621.212.635-2.186 1.48-.14h1.48l1.551.704.917-3.242 1.692 1.762 1.34-1.833 1.48-.423 1.339 4.23 1.621-3.595h1.551l1.058 2.396 1.48-.211.634 2.82 2.045-1.904.916 1.551.635 1.763 3.031-2.961-.282 3.525 2.326-1.34.494 1.904.352 1.903 1.27.564 1.127.775 1.34-.846-1.48 2.327.07-4.371-2.115 2.115-.917-1.833-1.057-1.48-2.256 3.242-1.269-.352-.775-3.102-1.48.282-1.693 1.974-.986-3.102-1.763 3.031-1.128-2.608-1.48 1.763-1.34-.353-1.339-.564-1.41 1.41-1.41-4.3-1.41.282-1.198 3.947-1.692-3.736-.987 3.736-1.55-1.127h-1.41l-1.481-.423-.917 2.467-1.198.846-2.115-2.75-.916 1.904z"/></g></svg>