<svg xmlns="http://www.w3.org/2000/svg" width="112" height="133" viewBox="0 0 112 133"><g><g><g><path fill="#98774a" d="M32.7 3.5S27.2-2.2 20 2.8c0 0-4 2.3-2.8 10.7 0 0-1 6 1.5 9.7l.6 2.8s1.8.3 6 3.7c0 0-2.7-13.5 7.4-26.2z"/></g><g><path fill="#98774a" d="M62.7 3.5s5.5-5.7 12.7-.7c0 0 4 2.3 2.8 10.7 0 0 1 6-1.5 9.7l-.3 2.4s-1.1-1.4-5 2.6c-.1-.1-2.6-20.3-8.7-24.7z"/></g><g><path fill="#715145" d="M74 20.5s6-8.9 1.7-15.3c-1.3-2-4.3-3.7-9.3-2.3-.1 0 12.3 0 7.6 17.6z"/></g><g><path fill="#715145" d="M21.6 21s-6-8.9-1.7-15.3c1.3-2 4.3-3.7 9.3-2.3.1-.1-12.3-.1-7.6 17.6z"/></g><g><path fill="#98774a" d="M72 48.7s-.5 25 4.7 28c0 0 6.7 8 32.3 5.8 0 0 5.3 37.7.3 47.3 0 0-27-4.5-35.5-.2 0 0-29.5 7.7-40.2-.3 0 0 8.3 2.8 11.8-4.8 0 0-1.5-16.5 7.5-22.2 0 0 17.5-20.3 17-25.2.1.1-.1-24.1 2.1-28.4z"/></g><g><g><path fill="#f0f1ea" d="M19 35.8l.7 1 .2 1-.4 1-.3.9.2 1-1.1.9 1.3 1.1-.5 1-.3.9-.6.9.6 1.1-.1.9.3 1.1-1.3.8-.1 1 .7 1-.3 1-1.3.8.5 1.1.4 1-.2 1 .5 1-.1 1-1 .8.1 1 .3 1.1-1.6.8 1.6 1.2-.7.8-.6 1-.7.9.4 1 .4 1v1l.3 1.1-1.8.7.6 1.1.8 1.1-1.1.8-.4 1 .2 1-.8.9.5 1 .1 1.1-.7.9.3 1 .4 1 .3 1-1.5 1 1.3 1 .3.9-.1 1-1.4 1.1.4 1 .4 1 1.4.7-1 1.3.7.8.6.8.1 1.1 1.2.4.9.3-.2 1.7 1 .3.8.6.7.7h1.2l.4 1.1.2 1.2.7.7 1.3.1 1.2.1.5.9-.2 1.7 1.2.2 1 .3.2 1.2 1.3.1-.4 1.8h1.4v1.4l1.5-.1.5.9.5.9 1 .5-.5 1.6 1.1.4 1.1.5.2 1.1v1l.4 1 .2.9.8.9-.3 1.1.2.9-1.2 1 .3 1-.2.9v2l-1.1.7 1.1 1.4-1.7.4.8.9.2.7.9.4 1 .3.9-1.2 1 .5 1.1.5 1.1-.1.4-1.4.2-1.2.9-.3.8-.6 1.4-.1.4-.9.6-1-.3-1-.2-1 .5-1-1.1-1 1.1-.9.3-1-.1-.9-.6-1.1.3-.9-.4-1.1.3-1 .4-.9v-1l1.4-.6-.3-1.1 1-.7.2-.9.3-.9v-1.2l.8-.6.8-.7.1-1.2 1.4.1.7-.7v-1.5l1.1-.2.2-1.2 1.3-.1.8-.6-.4-1.7 1.9.4.1-1.2.5-.9.8-.7.4-.9.2-1.1 1.2-.3.3-1 1.1-.4.8-.6-.6-1.7 1-.5 1.2-.4-.5-1.5.5-.8 1.4-.4 1-.5.4-.9.1-1.1 1.2-.5-.8-1.5.6-.8 1.3-.5-.3-1.2.1-.9-.1-.9 1.3-1-.9-1 .6-.9-.3-1 .4-1-.9-1 .1-1 1-.9-.8-1 .4-1 .5-1-.6-1-.9-1 1.8-.9-.5-1 .3-.9-.3-1-.3-1 .4-1-.1-1-.7-1 1.2-.9-.5-1.1.9-.8-.9-1.2 1.6-.7-.9-1.2-.4-1 1.6-.7-.7-1.2-.1-1 .2-1 .5-.9 1-.7L73 43l.8-.7.1-1.1 1-.5 1-.5"/></g></g><g><path fill="#e2e2de" d="M23.8 22s-9.3 6-6.5 13.8c0 0 .8 5.5 18.7 13.2 0 0 10 6.7 26.3-.3 0 0 16.3-8.8 16.3-15.7 0 0 1.2-7.5-7.5-10.8"/></g><g><path fill="#8a6840" d="M76.3 25.5l-5 2.6-9.1-.8-1.4 7.4S55.4 24 50 24c-14 .2-14.2 10.7-14.2 10.7L33 29.6l-7.9-.7L19 25c.5-4.3 4.3-6.5 4.3-6.5.8-4 6-11.3 6-11.3S33.5 0 47.2 0h1c13.7 0 17.6 6.4 17.6 6.4s5.5 8 6 12.3c0 0 3.4.7 4.5 6.8"/></g><g><path fill="#81686c" d="M25.1 28.9l5.9 1.5"/></g><g><g><path fill="#0e101b" d="M36.5 17.8s-.7 3.7-5 2.5c0 0-1.3-4.7 1.5-5.3 0 0 2-.5 3.5 2.8z"/></g><g><g><path d="M37.1 17.7c-.2-.4-.4-.8-.7-1.2-.3-.4-.6-.8-.9-1.1-.7-.7-1.6-1.2-2.6-1.2.5-.1 1-.1 1.5.1s1 .4 1.4.7c.4.3.8.7 1.2 1 .4.4.7.8 1 1.2z"/></g></g></g><g><g><path fill="#0e101b" d="M60.2 17.8s.7 3.7 5 2.5c0 0 1.3-4.7-1.5-5.3 0 0-2-.5-3.5 2.8z"/></g><g><g><path d="M58.7 17.2c.3-.5.6-.9 1-1.2.4-.4.7-.7 1.2-1 .4-.3.9-.6 1.4-.7.5-.2 1-.2 1.5-.1-1 0-1.9.5-2.6 1.2-.3.3-.6.7-.9 1.1-.3.4-.5.8-.7 1.2z"/></g></g></g><g><path fill="#777776" d="M61.7 16.5a1 1 0 1 1 2 0 1 1 0 0 1-2 0z"/></g><g><path fill="#777776" d="M33.1 16.8a1 1 0 1 1 2 0 1 1 0 0 1-2 0z"/></g><g><path fill="#6e4e44" d="M48.3 7.2s5 0 7.2 1.8c0 0 2.3 3.8 2.3 8.7 0 0 1.4 7 8.9 4.3 0 0 4.8 2.8 4.6 6.3 0 0-9.4.8-10.5 6.5L58 31.2s-.7-3.8-4.2-1.7c0 0 0-5.5-5.7-5-5.6.5-5.3 5-5.3 5-3.5-2.2-4.2 1.7-4.2 1.7l-2.8 3.5c-1.3-4.3-10.5-5-10.5-5-.6-2.1 2.8-7.5 3.2-7.5 10.9.5 10.3-4.5 10.3-4.5 0-4.8 2.3-8.7 2.3-8.7 2.2-1.8 7.2-1.8 7.2-1.8"/></g><g><path fill="#d1d0cd" d="M41 38.9s6.2 4.2 13 0c0 0 1.7 10.3 5 11.3 0 0-9.3 4.7-21.7-.3 0 0 4.4-3.7 3.7-11z"/></g><g><path fill="#7c5938" d="M38.8 17.7s-.2-5.8 2.3-8.7c0 0 7.1-5.1 14.3 0 0 0 2.8 5.2 2.3 8.7 0 0-3.8 3.8-5.5 7.8 0 0-6-2.7-8.3 0 .1 0-1.6-5-5.1-7.8z"/></g><g><g><path d="M54 27.3c0 1.4-1.4 2.6-3.4 3.1-.7.2 1.4 2.3-2.1 2.3-2.7 0-1.5-2.1-2.1-2.3-2-.5-3.4-1.7-3.4-3.1 0-1.9 2.5-3.4 5.5-3.4s5.5 1.5 5.5 3.4z"/></g><g><g><path d="M42.5 36.4c.8-.7 1.7-1.2 2.8-1.6 1-.3 2.1-.5 3.2-.4 1.1.1 2.2.3 3.1.8 1 .4 1.8 1.1 2.6 1.9-1-.4-1.9-.8-2.9-1.1-.9-.3-1.9-.5-2.9-.5-2-.3-3.9.1-5.9.9z"/></g></g><g><path fill="none" stroke="#000" stroke-miterlimit="50" d="M48.5 32.7v2.5"/></g></g><g><g><path fill="#98774a" d="M61.1 27.4c3.3-1.2 6.6-1.9 10-2.2 3.4-.3 6.8-.3 10.2.2 1.7.2 3.3.6 5 1 1.6.6 3.3 1 4.8 1.8 3.1 1.3 5.9 3.3 8.6 5.3-2.7-2-5.5-3.9-8.7-5.1-1.5-.7-3.2-1.1-4.8-1.6-1.6-.3-3.3-.8-5-.9-3.3-.4-6.7-.4-10 0s-6.6 1.2-9.7 2.4z"/></g></g><g><g><path fill="#98774a" d="M61.2 30.2c3.8-1 7.7-1.5 11.6-1.6 3.9-.1 7.8.2 11.6 1.1 3.8.9 7.5 2.3 10.8 4.3 3.4 2 6.3 4.6 8.9 7.5-2.6-2.9-5.6-5.4-9-7.2-3.4-1.9-7-3.2-10.8-4-3.8-.8-7.7-1-11.5-.9-3.8.2-7.7.7-11.4 1.8z"/></g></g><g><g><path fill="#98774a" d="M61 32.3c4-.9 8.1-1 12.1-.6s8 1.5 11.6 3.3c3.6 1.8 6.9 4.3 9.6 7.2 2.7 3 4.9 6.4 6.5 10-1.8-3.6-4-7-6.7-9.9-2.7-2.9-6-5.3-9.6-7-3.6-1.7-7.5-2.7-11.4-3-3.9-.3-8-.1-11.8.8z"/></g></g><g><g><path fill="#98774a" d="M34.9 29.8c-3.3.2-6.6.7-9.8 1.4-3.2.7-6.4 1.6-9.5 2.8-3.1 1.2-6.1 2.7-8.8 4.6-2.7 1.9-5.1 4.3-6.8 7.2 1.6-2.9 3.9-5.4 6.6-7.4 2.7-2 5.6-3.6 8.7-4.9 3.1-1.3 6.3-2.3 9.5-3.1 3.3-.8 6.5-1.4 9.9-1.7z"/></g></g><g><g><path fill="#98774a" d="M35.3 33c-3.3.7-6.6 1.6-9.8 2.5-3.2 1-6.4 2-9.6 3.3-3.1 1.2-6.2 2.6-9.1 4.4-1.4.9-2.8 1.9-4 3C1.6 47.4.5 48.7 0 50.4c.4-1.6 1.5-3.1 2.7-4.3 1.2-1.2 2.6-2.2 4-3.1 2.9-1.8 5.9-3.3 9.1-4.6 3.1-1.3 6.3-2.5 9.5-3.5s6.5-2 9.8-2.8z"/></g></g><g><g><path fill="#98774a" d="M35.5 27.7c-2.5 0-5 .2-7.4.4-2.5.2-4.9.6-7.4 1.1-2.4.5-4.9 1.1-7.2 2-2.3.9-4.6 2.1-6.1 4.2 1.4-2.1 3.7-3.4 6-4.4 2.3-1 4.7-1.7 7.2-2.3 2.4-.6 4.9-1 7.4-1.3 2.5-.3 5-.6 7.5-.7z"/></g></g></g></g></svg>