<svg xmlns="http://www.w3.org/2000/svg" width="83" height="101">
 <path d="M57.271 34H25.73v-9.514c0-8.135 7.071-14.747 15.771-14.747 8.7 0 15.771 6.612 15.771 14.747zM41.5 76.814c-5.596 0-10.175-4.281-10.175-9.514s4.579-9.514 10.175-9.514c5.596 0 10.175 4.281 10.175 9.514s-4.579 9.514-10.175 9.514zM72.025 34h-5.088v-9.514C66.938 11.356 55.543.7 41.5.7 27.459.7 16.062 11.356 16.062 24.486V34h-5.087C5.379 34 .8 38.281.8 43.514v47.572c0 5.233 4.579 9.514 10.175 9.514h61.05c5.596 0 10.175-4.281 10.175-9.514V43.514C82.2 38.281 77.621 34 72.025 34z"/>
</svg>